<?xml version="1.0" encoding="UTF-8"?>
<svg id="Calque_2" data-name="Calque 2" xmlns="http://www.w3.org/2000/svg" viewBox="0 0 206.32 85.85">
  <defs>
    <style>
      .cls-1 {
        fill: #6951eb;
      }
    </style>
  </defs>
  <g id="Calque_2-2" data-name="Calque 2">
    <g>
      <g>
        <path class="cls-1" d="M92.6.95h12.41c6.25,0,10.32,3.38,10.32,8.91s-4.07,8.91-10.32,8.91h-8.54v10.96h-3.87V.95ZM105.02,15.45c4.11,0,6.37-2.1,6.37-5.6s-2.26-5.6-6.37-5.6h-8.54v11.2h8.54Z"/>
        <path class="cls-1" d="M132.86,29.72v-4.23c-1.05,2.78-3.43,4.71-7.05,4.71-4.59,0-6.69-3.1-6.69-7.9v-13.54h3.55v12.61c0,3.95,1.77,5.8,5.08,5.8s5.04-2.26,5.04-5.8v-12.61h3.55v20.96h-3.47Z"/>
        <path class="cls-1" d="M145.43,8.76v5.2c.89-3.22,2.94-5.4,5.76-5.4.81,0,1.33.04,1.81.2v3.06h-2.06c-3.39,0-5.44,1.65-5.44,6.08v11.81h-3.55V8.76h3.47Z"/>
        <path class="cls-1" d="M159.54,8.76v4.92c1.01-3.1,3.83-5.4,7.25-5.4,5,0,9.11,4.27,9.11,10.96s-4.35,10.96-8.99,10.96c-3.34,0-6.17-2.18-7.29-5.2v11.97h-3.55V8.76h3.47ZM172.19,19.24c0-5-2.86-8.02-6.45-8.02-3.1,0-6.21,2.22-6.21,7.54v.97c0,5.32,3.1,7.54,6.21,7.54,3.59,0,6.45-3.02,6.45-8.02Z"/>
        <path class="cls-1" d="M183.47.46v29.26h-3.55V.46h3.55Z"/>
        <path class="cls-1" d="M191.09,19.48c.12,4.88,2.9,7.78,6.57,7.78,3.14,0,4.92-2.14,5.44-4.55h3.22c-.69,4.47-4.07,7.5-8.74,7.5-5.92,0-10.07-4.27-10.07-10.96s4.03-10.96,9.91-10.96,8.95,4.55,8.87,11.2h-15.19ZM191.33,16.66h11.36c-.48-4.07-2.74-5.52-5.28-5.52-3.26,0-5.4,2.05-6.09,5.52Z"/>
        <path class="cls-1" d="M104.61,49.3c5.88,0,9.91,2.9,9.91,7.94,0,4.07-2.86,6.97-7.46,7.62,3.1.52,4.8,1.97,6.21,5.24l3.47,7.98h-4.31l-3.02-7.17c-1.53-3.63-2.94-4.31-6.97-4.31h-5.96v11.49h-3.87v-28.77h12.01ZM96.47,52.61v10.68h7.74c3.71,0,6.37-1.93,6.37-5.36s-2.38-5.32-6.37-5.32h-7.74Z"/>
        <path class="cls-1" d="M123.43,49.3v3.63h-3.55v-3.63h3.55ZM123.43,57.12v20.96h-3.55v-20.96h3.55Z"/>
        <path class="cls-1" d="M143.82,78.07v-4.92c-1.01,3.1-3.83,5.4-7.25,5.4-5,0-9.11-4.27-9.11-10.96s4.35-10.96,8.99-10.96c3.34,0,6.17,2.18,7.29,5.2v-13.02h3.55v29.26h-3.47ZM131.17,67.6c0,5,2.86,8.02,6.45,8.02,3.1,0,6.21-2.22,6.21-7.54v-.97c0-5.32-3.1-7.54-6.21-7.54-3.59,0-6.45,3.02-6.45,8.02Z"/>
        <path class="cls-1" d="M154.58,78.68c.69,2.58,3.3,4.31,6.53,4.31,4.27,0,6.49-2.66,6.49-6.73v-3.71c-1.09,2.98-3.91,5.2-7.29,5.2-4.63,0-8.99-4.27-8.99-10.56s4.11-10.56,9.11-10.56c3.39,0,6.21,2.26,7.25,5.36v-4.88h3.47v18.98c0,5.96-3.67,9.75-10.03,9.75-5.36,0-9.23-2.86-9.75-7.17h3.22ZM155.02,67.19c0,4.59,2.86,7.62,6.45,7.62,3.1,0,6.21-2.22,6.21-7.13v-.97c0-4.92-3.1-7.13-6.21-7.13-3.59,0-6.45,3.02-6.45,7.62Z"/>
        <path class="cls-1" d="M178.76,67.84c.12,4.88,2.9,7.78,6.57,7.78,3.14,0,4.92-2.14,5.44-4.55h3.22c-.69,4.47-4.07,7.5-8.74,7.5-5.92,0-10.07-4.27-10.07-10.96s4.03-10.96,9.91-10.96,8.95,4.55,8.87,11.2h-15.19ZM179,65.02h11.36c-.48-4.07-2.74-5.52-5.28-5.52-3.26,0-5.4,2.05-6.09,5.52Z"/>
      </g>
      <polygon class="cls-1" points="24.39 72.5 51 56 66 72 69.85 67.5 74 71.93 74 0 0 0 0 79 18 66 24.39 72.5"/>
    </g>
  </g>
</svg>